{"title":"tvf.tripling.S01E05.x265.1080p.[GreatIndiaRipper]","uid":15937418,"size":138622126,"categoryP":"video","categoryS":"tv_shows","magnet":"?xt=urn:btih:c4b5673fc132e36f53a1cb2729cac3e9d90e6857&amp;dn=tvf.tripling.S01E05.x265.1080p.%5BGreatIndiaRipper%5D&amp;tr=udp%3A%2F%2Ftracker.leechers-paradise.org%3A6969&amp;tr=udp%3A%2F%2Fzer0day.ch%3A1337&amp;tr=udp%3A%2F%2Fopen.demonii.com%3A1337&amp;tr=udp%3A%2F%2Ftracker.coppersurfer.tk%3A6969&amp;tr=udp%3A%2F%2Fexodus.desync.com%3A6969","seeders":5,"leechers":2,"uploader":"greatindiaripper","files":8,"time":1475416406,"description":"General\r\n\r\nFormat                      : Matroska\r\nFormat version              : Version 4 / Version 2\r\nFile size                   : 131 MiB\r\nDuration                    : 28 min\r\nMovie name                  : tvf.tripling.S01E02.x265.1080p.[GreatIndiaRipper]\r\n\r\n\r\nVideo\r\nID                          : 1\r\nFormat                      : HEVC\r\nFormat/Info                 : High Efficiency Video Coding\r\nFormat profile              :   @Main\r\nCodec ID                    : V_MPEGH/ISO/HEVC\r\nDuration                    : 28 min\r\nWidth                       : 1 920 pixels\r\nHeight                      : 1 080 pixels\r\nDisplay aspect ratio        : 16:9\r\nFrame rate mode             : Constant\r\nFrame rate                  : 23.976 (24000/1001) FPS\r\nColor space                 : YUV\r\nChroma subsampling          : 4:2:0\r\nBit depth                   : 8 bits\r\nBits/(Pixel*Frame)          : 0.011\r\nStream size                 : 111 MiB (85%)\r\nTitle                       : tvf.tripling.S01E02.x265.1080p.[GreatIndiaRipper]\r\n\r\n\r\nAudio\r\nID                          : 2\r\nFormat                      : AAC\r\nFormat/Info                 : Advanced Audio Codec\r\nFormat profile              : LC\r\nCodec ID                    : A_AAC\r\nDuration                    : 28 min\r\nBit rate                    : 98.2 kb/s\r\nChannel(s)                  : 2 channels\r\nChannel positions           : Front: L R\r\nSampling rate               : 48.0 kHz\r\nFrame rate                  : 46.875 FPS (1024 spf)\r\nCompression mode            : Lossy\r\nDelay relative to video     : -21 ms\r\nStream size                 : 19.8 MiB (15%)\r\nTitle                       : tvf.tripling.S01E02.x265.1080p.[GreatIndiaRipper]\r\nDefault                     : Yes\r\nForced                      : No","torrent":{"xt":"urn:btih:c4b5673fc132e36f53a1cb2729cac3e9d90e6857","amp;dn":"tvf.tripling.S01E05.x265.1080p.%5BGreatIndiaRipper%5D","amp;tr":["udp%3A%2F%2Ftracker.leechers-paradise.org%3A6969","udp%3A%2F%2Fzer0day.ch%3A1337","udp%3A%2F%2Fopen.demonii.com%3A1337","udp%3A%2F%2Ftracker.coppersurfer.tk%3A6969","udp%3A%2F%2Fexodus.desync.com%3A6969"],"infoHash":"c4b5673fc132e36f53a1cb2729cac3e9d90e6857","infoHashBuffer":{"type":"Buffer","data":[196,181,103,63,193,50,227,111,83,161,203,39,41,202,195,233,217,14,104,87]},"announce":[],"urlList":[]}}